KayPhoDu-Regular.ufo
<glyph name="exclam" format="2">
  <advance width="287"/>
  <unicode hex="0021"/>
  <note>
		exclam
  </note>
  <outline>
    <contour>
      <point x="127" y="241" type="qcurve"/>
      <point x="147" y="241" type="line"/>
      <point x="223" y="1152" type="line"/>
      <point x="223" y="1187"/>
      <point x="181" y="1229"/>
      <point x="137" y="1229" type="qcurve" smooth="yes"/>
      <point x="95" y="1229"/>
      <point x="51" y="1190"/>
      <point x="51" y="1150" type="qcurve" smooth="yes"/>
      <point x="52" y="1143"/>
      <point x="53" y="1126"/>
      <point x="55" y="1094"/>
      <point x="58" y="1040"/>
      <point x="65" y="952"/>
      <point x="75" y="823"/>
      <point x="91" y="641"/>
      <point x="113" y="399"/>
    </contour>
    <contour>
      <point x="82" y="134" type="line"/>
      <point x="82" y="4" type="line"/>
      <point x="193" y="4" type="line"/>
      <point x="193" y="134" type="line"/>
    </contour>
  </outline>
</glyph>
<glyph name="percent" format="2">
  <advance width="922"/>
  <unicode hex="0025"/>
  <note>
		percent
  </note>
  <outline>
    <contour>
      <point x="226" y="0" type="line"/>
      <point x="815" y="1080" type="line"/>
      <point x="684" y="1082" type="line"/>
      <point x="99" y="0" type="line"/>
    </contour>
    <contour>
      <point x="619" y="375" type="line"/>
      <point x="619" y="258" type="line"/>
      <point x="754" y="258" type="line"/>
      <point x="754" y="375" type="line"/>
    </contour>
    <contour>
      <point x="287" y="701" type="line"/>
      <point x="287" y="819" type="line"/>
      <point x="156" y="819" type="line"/>
      <point x="156" y="701" type="line"/>
    </contour>
  </outline>
</glyph>
<glyph name="parenleft" format="2">
	<advance width="615"/>
	<unicode hex="0028"/>
	<note>
		parenleft
  </note>
	<outline>
		<contour>
			<point x="559" y="-275" type="line"/>
			<point x="453" y="-189"/>
			<point x="290" y="84"/>
			<point x="205" y="378"/>
			<point x="205" y="496" type="qcurve"/>
			<point x="210" y="582"/>
			<point x="295" y="840"/>
			<point x="466" y="1093"/>
			<point x="590" y="1172" type="qcurve"/>
			<point x="391" y="1172" type="line"/>
			<point x="274" y="1068"/>
			<point x="129" y="836"/>
			<point x="68" y="605"/>
			<point x="68" y="496" type="qcurve" smooth="yes"/>
			<point x="68" y="17"/>
			<point x="365" y="-275" type="qcurve"/>
		</contour>
	</outline>
</glyph>
<glyph name="parenright" format="2">
  <advance width="615"/>
  <unicode hex="0029"/>
  <outline>
    <contour>
      <point x="78" y="-275" type="curve"/>
      <point x="258" y="-275" type="line"/>
      <point x="446" y="-75"/>
      <point x="533" y="188"/>
      <point x="533" y="496" type="curve" smooth="yes"/>
      <point x="533" y="603"/>
      <point x="515" y="716"/>
      <point x="468" y="834" type="curve" smooth="yes"/>
      <point x="421" y="952"/>
      <point x="345" y="1067"/>
      <point x="234" y="1172" type="curve"/>
      <point x="49" y="1172" type="line"/>
      <point x="201" y="1068"/>
      <point x="308" y="884"/>
      <point x="361" y="712" type="curve" smooth="yes"/>
      <point x="388" y="625"/>
      <point x="403" y="553"/>
      <point x="406" y="496" type="curve"/>
      <point x="406" y="380"/>
      <point x="376" y="235"/>
      <point x="319" y="90" type="curve" smooth="yes"/>
      <point x="262" y="-55"/>
      <point x="181" y="-186"/>
    </contour>
  </outline>
</glyph>
<glyph name="asterisk" format="2">
  <advance width="922"/>
  <unicode hex="002A"/>
  <outline>
    <contour>
      <point x="148" y="62" type="line"/>
      <point x="819" y="731" type="line"/>
      <point x="742" y="811" type="line"/>
      <point x="70" y="140" type="line"/>
    </contour>
    <contour>
      <point x="774" y="70" type="line"/>
      <point x="852" y="148" type="line"/>
      <point x="189" y="811" type="line"/>
      <point x="111" y="733" type="line"/>
    </contour>
    <contour>
      <point x="389" y="819" type="line"/>
      <point x="389" y="0" type="line"/>
      <point x="512" y="0" type="line"/>
      <point x="512" y="819" type="line"/>
    </contour>
    <contour>
      <point x="885" y="385" type="line"/>
      <point x="885" y="504" type="line"/>
      <point x="29" y="504" type="line"/>
      <point x="29" y="385" type="line"/>
    </contour>
  </outline>
</glyph>
<glyph name="plus" format="2">
	<advance width="922"/>
	<unicode hex="002B"/>
	<note>
		plus
  </note>
	<outline>
		<contour>
			<point x="504" y="0" type="line"/>
			<point x="504" y="817" type="line"/>
			<point x="406" y="819" type="line"/>
			<point x="406" y="0" type="line"/>
		</contour>
		<contour>
			<point x="803" y="361" type="line"/>
			<point x="803" y="441" type="line"/>
			<point x="99" y="443" type="line"/>
			<point x="99" y="361" type="line"/>
		</contour>
	</outline>
</glyph>
<glyph name="comma" format="2">
	<advance width="471"/>
	<unicode hex="002C"/>
	<note>
		comma
  </note>
	<outline>
		<contour>
			<point x="316" y="4" type="line"/>
			<point x="316" y="160" type="line"/>
			<point x="160" y="160" type="line"/>
			<point x="160" y="54" type="line"/>
			<point x="41" y="-148" type="line"/>
			<point x="246" y="4" type="line"/>
		</contour>
	</outline>
</glyph>
<glyph name="period" format="2">
	<advance width="389"/>
	<unicode hex="002E"/>
	<note>
		period
  </note>
	<outline>
		<contour>
			<point x="270" y="4" type="line"/>
			<point x="270" y="160" type="line"/>
			<point x="115" y="160" type="line"/>
			<point x="115" y="4" type="line"/>
		</contour>
	</outline>
</glyph>
<glyph name="slash" format="2">
	<advance width="922"/>
	<unicode hex="002F"/>
	<note>
		slash
  </note>
	<outline>
		<contour>
			<point x="226" y="0" type="line"/>
			<point x="815" y="1080" type="line"/>
			<point x="684" y="1082" type="line"/>
			<point x="99" y="0" type="line"/>
		</contour>
	</outline>
</glyph>
<glyph name="colon" format="2">
	<advance width="389"/>
	<unicode hex="003A"/>
	<note>
		colon
  </note>
	<outline>
		<contour>
			<point x="266" y="580" type="line"/>
			<point x="266" y="736" type="line"/>
			<point x="111" y="736" type="line"/>
			<point x="111" y="580" type="line"/>
		</contour>
		<contour>
			<point x="266" y="80" type="line"/>
			<point x="266" y="236" type="line"/>
			<point x="111" y="236" type="line"/>
			<point x="111" y="80" type="line"/>
		</contour>
	</outline>
</glyph>
<glyph name="semicolon" format="2">
	<advance width="389"/>
	<unicode hex="003B"/>
	<note>
		semicolon
  </note>
	<outline>
		<contour>
			<point x="266" y="580" type="line"/>
			<point x="266" y="736" type="line"/>
			<point x="111" y="736" type="line"/>
			<point x="111" y="580" type="line"/>
		</contour>
		<contour>
			<point x="262" y="80" type="line"/>
			<point x="262" y="236" type="line"/>
			<point x="106" y="236" type="line"/>
			<point x="106" y="130" type="line"/>
			<point x="-13" y="-72" type="line"/>
			<point x="193" y="80" type="line"/>
		</contour>
	</outline>
</glyph>
<glyph name="equal" format="2">
	<advance width="922"/>
	<unicode hex="003D"/>
	<note>
		equal
  </note>
	<outline>
		<contour>
			<point x="803" y="479" type="line"/>
			<point x="803" y="559" type="line"/>
			<point x="99" y="561" type="line"/>
			<point x="99" y="479" type="line"/>
		</contour>
		<contour>
			<point x="803" y="250" type="line"/>
			<point x="803" y="330" type="line"/>
			<point x="99" y="332" type="line"/>
			<point x="99" y="250" type="line"/>
		</contour>
	</outline>
</glyph>
<glyph name="question" format="2">
	<advance width="922"/>
	<unicode hex="003F"/>
	<note>
		question
  </note>
	<outline>
		<contour>
			<point x="492" y="443" type="line" smooth="yes"/>
			<point x="492" y="459"/>
			<point x="529" y="488"/>
			<point x="636" y="551"/>
			<point x="682" y="582" type="qcurve" smooth="yes"/>
			<point x="772" y="643"/>
			<point x="860" y="785"/>
			<point x="860" y="902" type="qcurve"/>
			<point x="853" y="986"/>
			<point x="764" y="1136"/>
			<point x="594" y="1229"/>
			<point x="471" y="1229" type="qcurve"/>
			<point x="345" y="1220"/>
			<point x="192" y="1107"/>
			<point x="128" y="973"/>
			<point x="123" y="922" type="qcurve" smooth="yes"/>
			<point x="122" y="910"/>
			<point x="117" y="876"/>
			<point x="117" y="863" type="qcurve" smooth="yes"/>
			<point x="117" y="834"/>
			<point x="130" y="793"/>
			<point x="176" y="793" type="qcurve" smooth="yes"/>
			<point x="223" y="793"/>
			<point x="223" y="820" type="qcurve"/>
			<point x="225" y="841"/>
			<point x="225" y="901"/>
			<point x="226" y="910" type="qcurve" smooth="yes"/>
			<point x="232" y="965"/>
			<point x="300" y="1063"/>
			<point x="411" y="1124"/>
			<point x="475" y="1125" type="qcurve" smooth="yes"/>
			<point x="708" y="1125"/>
			<point x="752" y="896" type="qcurve" smooth="yes"/>
			<point x="756" y="871"/>
			<point x="756" y="859" type="qcurve" smooth="yes"/>
			<point x="756" y="790"/>
			<point x="651" y="677"/>
			<point x="547" y="619" type="qcurve" smooth="yes"/>
			<point x="454" y="568"/>
			<point x="386" y="495"/>
			<point x="380" y="451"/>
			<point x="377" y="451" type="qcurve"/>
			<point x="377" y="241" type="line"/>
			<point x="492" y="241" type="line"/>
		</contour>
		<contour>
			<point x="373" y="127" type="line"/>
			<point x="373" y="4" type="line"/>
			<point x="496" y="4" type="line"/>
			<point x="496" y="127" type="line"/>
		</contour>
	</outline>
</glyph>
<glyph name="multiply" format="2">
  <advance width="922"/>
  <unicode hex="00D7"/>
  <note>
multiply
</note>
  <outline>
    <contour>
      <point x="226" y="0" type="line"/>
      <point x="803" y="817" type="line"/>
      <point x="672" y="819" type="line"/>
      <point x="99" y="0" type="line"/>
    </contour>
    <contour>
      <point x="680" y="0" type="line"/>
      <point x="803" y="0" type="line"/>
      <point x="230" y="819" type="line"/>
      <point x="99" y="819" type="line"/>
    </contour>
  </outline>
</glyph>
<glyph name="divide" format="2">
	<advance width="922"/>
	<unicode hex="00F7"/>
	<note>
		divide
  </note>
	<outline>
		<contour>
			<point x="504" y="615" type="line"/>
			<point x="504" y="721" type="line"/>
			<point x="406" y="721" type="line"/>
			<point x="406" y="615" type="line"/>
		</contour>
		<contour>
			<point x="803" y="361" type="line"/>
			<point x="803" y="441" type="line"/>
			<point x="99" y="443" type="line"/>
			<point x="99" y="361" type="line"/>
		</contour>
		<contour>
			<point x="504" y="90" type="line"/>
			<point x="504" y="197" type="line"/>
			<point x="406" y="197" type="line"/>
			<point x="406" y="90" type="line"/>
		</contour>
	</outline>
</glyph>
<glyph name="endash" format="2">
	<advance width="922"/>
	<unicode hex="2013"/>
	<note>
		endash
  </note>
	<outline>
		<contour>
			<point x="803" y="361" type="line"/>
			<point x="803" y="441" type="line"/>
			<point x="99" y="443" type="line"/>
			<point x="99" y="361" type="line"/>
		</contour>
	</outline>
</glyph>
<glyph name="quoteleft" format="2">
  <advance width="484"/>
  <unicode hex="2018"/>
  <note>
		quoteleft
  </note>
  <outline>
    <contour>
      <point x="41" y="1259" type="line"/>
      <point x="41" y="1103" type="line"/>
      <point x="111" y="1103" type="line"/>
      <point x="316" y="951" type="line"/>
      <point x="197" y="1152" type="line"/>
      <point x="197" y="1259" type="line"/>
    </contour>
  </outline>
</glyph>
<glyph name="quoteright" format="2">
	<advance width="484"/>
	<unicode hex="2019"/>
	<note>
		quoteright
  </note>
	<outline>
		<contour>
			<point x="316" y="1103" type="line"/>
			<point x="316" y="1259" type="line"/>
			<point x="160" y="1259" type="line"/>
			<point x="160" y="1152" type="line"/>
			<point x="41" y="951" type="line"/>
			<point x="246" y="1103" type="line"/>
		</contour>
	</outline>
</glyph>
<glyph name="quotedblleft" format="2">
	<advance width="766"/>
	<unicode hex="201C"/>
	<note>
		quotedblleft
  </note>
	<outline>
		<contour>
			<point x="41" y="1258" type="line"/>
			<point x="41" y="1102" type="line"/>
			<point x="111" y="1102" type="line"/>
			<point x="316" y="950" type="line"/>
			<point x="197" y="1151" type="line"/>
			<point x="197" y="1258" type="line"/>
		</contour>
		<contour>
			<point x="324" y="1258" type="line"/>
			<point x="324" y="1102" type="line"/>
			<point x="393" y="1102" type="line"/>
			<point x="598" y="950" type="line"/>
			<point x="480" y="1151" type="line"/>
			<point x="480" y="1258" type="line"/>
		</contour>
	</outline>
</glyph>
<glyph name="quotedblright" format="2">
	<advance width="766"/>
	<unicode hex="201D"/>
	<note>
		quotedblright
  </note>
	<outline>
		<contour>
			<point x="598" y="1102" type="line"/>
			<point x="598" y="1258" type="line"/>
			<point x="442" y="1258" type="line"/>
			<point x="442" y="1151" type="line"/>
			<point x="324" y="950" type="line"/>
			<point x="529" y="1102" type="line"/>
		</contour>
		<contour>
			<point x="316" y="1102" type="line"/>
			<point x="316" y="1258" type="line"/>
			<point x="160" y="1258" type="line"/>
			<point x="160" y="1151" type="line"/>
			<point x="41" y="950" type="line"/>
			<point x="246" y="1102" type="line"/>
		</contour>
	</outline>
</glyph>
<glyph name="uniA900" format="2">
	<advance width="922"/>
	<unicode hex="A900"/>
	<note>
		uniA900
  </note>
	<outline>
		<contour>
			<point x="266" y="0" type="qcurve" smooth="yes"/>
			<point x="652" y="0" type="line" smooth="yes"/>
			<point x="686" y="0"/>
			<point x="759" y="37"/>
			<point x="811" y="130"/>
			<point x="811" y="205" type="qcurve" smooth="yes"/>
			<point x="811" y="615" type="line" smooth="yes"/>
			<point x="811" y="813"/>
			<point x="639" y="819" type="qcurve"/>
			<point x="258" y="819" type="line"/>
			<point x="94" y="800"/>
			<point x="94" y="615" type="qcurve" smooth="yes"/>
			<point x="94" y="205" type="line" smooth="yes"/>
			<point x="94" y="110"/>
			<point x="193" y="0"/>
		</contour>
		<contour>
			<point x="623" y="92" type="qcurve" smooth="yes"/>
			<point x="295" y="94" type="line" smooth="yes"/>
			<point x="193" y="94"/>
			<point x="193" y="203" type="qcurve" smooth="yes"/>
			<point x="193" y="604" type="line" smooth="yes"/>
			<point x="193" y="721"/>
			<point x="283" y="723" type="qcurve" smooth="yes"/>
			<point x="606" y="723" type="line" smooth="yes"/>
			<point x="705" y="723"/>
			<point x="705" y="621" type="qcurve" smooth="yes"/>
			<point x="705" y="195" type="line" smooth="yes"/>
			<point x="705" y="92"/>
		</contour>
	</outline>
</glyph>
<glyph name="uniA901" format="2">
	<advance width="922"/>
	<unicode hex="A901"/>
	<note>
		uniA901
  </note>
	<outline>
		<contour>
			<point x="398" y="94" type="line"/>
			<point x="426" y="158"/>
			<point x="605" y="226"/>
			<point x="676" y="226" type="qcurve" smooth="yes"/>
			<point x="705" y="226"/>
			<point x="705" y="219" type="qcurve" smooth="yes"/>
			<point x="705" y="162" type="line" smooth="yes"/>
			<point x="705" y="92"/>
			<point x="623" y="92" type="qcurve" smooth="yes"/>
		</contour>
		<contour>
			<point x="705" y="602" type="line"/>
			<point x="258" y="602" type="line"/>
			<point x="94" y="583"/>
			<point x="94" y="393" type="qcurve" smooth="yes"/>
			<point x="94" y="205" type="line" smooth="yes"/>
			<point x="94" y="110"/>
			<point x="193" y="0"/>
			<point x="266" y="0" type="qcurve" smooth="yes"/>
			<point x="652" y="0" type="line" smooth="yes"/>
			<point x="686" y="0"/>
			<point x="759" y="37"/>
			<point x="811" y="130"/>
			<point x="811" y="205" type="qcurve" smooth="yes"/>
			<point x="811" y="287" type="line" smooth="yes"/>
			<point x="811" y="324"/>
			<point x="721" y="324" type="qcurve" smooth="yes"/>
			<point x="648" y="324"/>
			<point x="459" y="268"/>
			<point x="313" y="164"/>
			<point x="295" y="94" type="qcurve"/>
			<point x="193" y="94"/>
			<point x="193" y="203" type="qcurve" smooth="yes"/>
			<point x="193" y="383" type="line" smooth="yes"/>
			<point x="193" y="512"/>
			<point x="283" y="514" type="qcurve"/>
			<point x="811" y="514" type="line"/>
			<point x="811" y="711" type="line" smooth="yes"/>
			<point x="811" y="910"/>
			<point x="652" y="916" type="qcurve"/>
			<point x="258" y="916" type="line"/>
			<point x="94" y="896"/>
			<point x="94" y="711" type="qcurve" smooth="yes"/>
			<point x="94" y="699" type="line"/>
			<point x="193" y="699" type="line"/>
			<point x="193" y="701" type="line" smooth="yes"/>
			<point x="193" y="749"/>
			<point x="224" y="818"/>
			<point x="283" y="819" type="qcurve" smooth="yes"/>
			<point x="619" y="819" type="line" smooth="yes"/>
			<point x="674" y="819"/>
			<point x="705" y="770"/>
			<point x="705" y="717" type="qcurve" smooth="yes"/>
		</contour>
	</outline>
</glyph>
<glyph name="uniA902" format="2">
  <advance width="922"/>
  <unicode hex="A902"/>
  <note>
uniA902
</note>
  <outline>
    <contour>
      <point x="504" y="0" type="line"/>
      <point x="803" y="819" type="line"/>
      <point x="701" y="819" type="line"/>
      <point x="449" y="119" type="line"/>
      <point x="185" y="819" type="line"/>
      <point x="86" y="819" type="line"/>
      <point x="393" y="0" type="line"/>
    </contour>
  </outline>
</glyph>
<glyph name="uniA903" format="2">
  <advance width="922"/>
  <unicode hex="A903"/>
  <note>
		uniA903
  </note>
  <outline>
    <contour>
      <point x="295" y="512" type="line"/>
      <point x="295" y="582" type="line"/>
      <point x="193" y="582" type="line"/>
      <point x="193" y="604" type="line" smooth="yes"/>
      <point x="193" y="721"/>
      <point x="283" y="723" type="qcurve" smooth="yes"/>
      <point x="606" y="723" type="line" smooth="yes"/>
      <point x="705" y="723"/>
      <point x="705" y="621" type="qcurve" smooth="yes"/>
      <point x="705" y="606" type="line"/>
      <point x="705" y="582" type="line"/>
      <point x="94" y="299" type="line"/>
      <point x="94" y="205" type="line" smooth="yes"/>
      <point x="94" y="110"/>
      <point x="193" y="0"/>
      <point x="266" y="0" type="qcurve" smooth="yes"/>
      <point x="652" y="0" type="line" smooth="yes"/>
      <point x="686" y="0"/>
      <point x="759" y="37"/>
      <point x="811" y="130"/>
      <point x="811" y="205" type="qcurve" smooth="yes"/>
      <point x="811" y="275" type="line"/>
      <point x="598" y="275" type="line" smooth="yes"/>
      <point x="520" y="275"/>
      <point x="348" y="208"/>
      <point x="226" y="124"/>
      <point x="226" y="109" type="qcurve" smooth="yes"/>
      <point x="226" y="90"/>
      <point x="246" y="90" type="qcurve" smooth="yes"/>
      <point x="268" y="90"/>
      <point x="428" y="157"/>
      <point x="545" y="197"/>
      <point x="606" y="197" type="qcurve" smooth="yes"/>
      <point x="705" y="197" type="line"/>
      <point x="705" y="170" type="line" smooth="yes"/>
      <point x="705" y="92"/>
      <point x="623" y="92" type="qcurve" smooth="yes"/>
      <point x="295" y="94" type="line" smooth="yes"/>
      <point x="193" y="94"/>
      <point x="193" y="203" type="qcurve"/>
      <point x="195" y="234" type="line"/>
      <point x="811" y="533" type="line"/>
      <point x="811" y="586" type="line"/>
      <point x="811" y="615" type="line" smooth="yes"/>
      <point x="811" y="813"/>
      <point x="639" y="819" type="qcurve"/>
      <point x="258" y="819" type="line"/>
      <point x="94" y="800"/>
      <point x="94" y="615" type="qcurve" smooth="yes"/>
      <point x="94" y="512" type="line"/>
    </contour>
  </outline>
</glyph>
<glyph name="uniA904" format="2">
  <advance width="922"/>
  <unicode hex="A904"/>
  <outline>
    <contour>
      <point x="193" y="688" type="line"/>
      <point x="193" y="819" type="line"/>
      <point x="94" y="819" type="line"/>
      <point x="94" y="205" type="line" smooth="yes"/>
      <point x="94" y="78"/>
      <point x="169" y="0"/>
      <point x="266" y="0" type="curve" smooth="yes"/>
      <point x="361" y="0" type="line"/>
      <point x="361" y="94" type="line"/>
      <point x="295" y="94" type="line" smooth="yes"/>
      <point x="227" y="94"/>
      <point x="193" y="130"/>
      <point x="193" y="203" type="curve" smooth="yes"/>
      <point x="193" y="557" type="line"/>
      <point x="357" y="723" type="line"/>
      <point x="606" y="723" type="line" smooth="yes"/>
      <point x="672" y="723"/>
      <point x="705" y="689"/>
      <point x="705" y="621" type="curve" smooth="yes"/>
      <point x="705" y="-215" type="line" smooth="yes"/>
      <point x="705" y="-284"/>
      <point x="678" y="-318"/>
      <point x="623" y="-318" type="curve" smooth="yes"/>
      <point x="541" y="-320" type="line"/>
      <point x="541" y="-410" type="line"/>
      <point x="652" y="-410" type="line" smooth="yes"/>
      <point x="728" y="-410"/>
      <point x="811" y="-353"/>
      <point x="811" y="-205" type="curve" smooth="yes"/>
      <point x="811" y="615" type="line" smooth="yes"/>
      <point x="811" y="747"/>
      <point x="754" y="815"/>
      <point x="639" y="819" type="curve"/>
      <point x="324" y="819" type="line"/>
    </contour>
  </outline>
</glyph>
<glyph name="uniA905" format="2">
	<advance width="922"/>
	<unicode hex="A905"/>
	<note>
		uniA905
  </note>
	<outline>
		<contour>
			<point x="389" y="92" type="line"/>
			<point x="295" y="94" type="line" smooth="yes"/>
			<point x="193" y="94"/>
			<point x="193" y="203" type="qcurve" smooth="yes"/>
			<point x="193" y="604" type="line" smooth="yes"/>
			<point x="193" y="721"/>
			<point x="283" y="723" type="qcurve" smooth="yes"/>
			<point x="717" y="723" type="line"/>
			<point x="717" y="609" type="line"/>
			<point x="815" y="609" type="line"/>
			<point x="815" y="819" type="line"/>
			<point x="258" y="819" type="line"/>
			<point x="94" y="800"/>
			<point x="94" y="615" type="qcurve" smooth="yes"/>
			<point x="94" y="205" type="line" smooth="yes"/>
			<point x="94" y="110"/>
			<point x="193" y="0"/>
			<point x="266" y="0" type="qcurve" smooth="yes"/>
			<point x="389" y="0" type="line"/>
		</contour>
	</outline>
</glyph>
<glyph name="uniA906" format="2">
  <advance width="922"/>
  <unicode hex="A906"/>
  <outline>
    <contour>
      <point x="705" y="252" type="line"/>
      <point x="668" y="301"/>
      <point x="632" y="303"/>
      <point x="586" y="303" type="curve" smooth="yes"/>
      <point x="487" y="303"/>
      <point x="449" y="218"/>
      <point x="449" y="137" type="curve" smooth="yes"/>
      <point x="450" y="54"/>
      <point x="518" y="0"/>
      <point x="623" y="0" type="curve" smooth="yes"/>
      <point x="716" y="0"/>
      <point x="778" y="48"/>
      <point x="811" y="144" type="curve"/>
      <point x="811" y="615" type="line" smooth="yes"/>
      <point x="811" y="747"/>
      <point x="754" y="815"/>
      <point x="639" y="819" type="curve" smooth="yes"/>
      <point x="459" y="819" type="line"/>
      <point x="193" y="381" type="line"/>
      <point x="193" y="604" type="line"/>
      <point x="193" y="819" type="line"/>
      <point x="94" y="819" type="line"/>
      <point x="94" y="0" type="line"/>
      <point x="193" y="0" type="line"/>
      <point x="193" y="180" type="line"/>
      <point x="520" y="723" type="line"/>
      <point x="606" y="723" type="line" smooth="yes"/>
      <point x="672" y="723"/>
      <point x="705" y="689"/>
      <point x="705" y="621" type="curve" smooth="yes"/>
      <point x="705" y="332" type="line"/>
    </contour>
    <contour>
      <point x="672" y="142" type="curve"/>
      <point x="665" y="99"/>
      <point x="639" y="78"/>
      <point x="594" y="78" type="curve"/>
      <point x="555" y="83"/>
      <point x="535" y="106"/>
      <point x="535" y="146" type="curve" smooth="yes"/>
      <point x="535" y="190"/>
      <point x="555" y="214"/>
      <point x="594" y="217" type="curve"/>
      <point x="641" y="217"/>
      <point x="667" y="192"/>
    </contour>
  </outline>
</glyph>
<glyph name="uniA908" format="2">
  <advance width="922"/>
  <unicode hex="A908"/>
  <note>
		uniA908
  </note>
  <outline>
    <contour>
      <point x="811" y="299" type="line"/>
      <point x="705" y="299" type="line"/>
      <point x="705" y="195" type="line" smooth="yes"/>
      <point x="705" y="92"/>
      <point x="623" y="92" type="qcurve" smooth="yes"/>
      <point x="295" y="94" type="line" smooth="yes"/>
      <point x="193" y="94"/>
      <point x="193" y="203" type="qcurve" smooth="yes"/>
      <point x="193" y="819" type="line"/>
      <point x="94" y="819" type="line"/>
      <point x="94" y="205" type="line" smooth="yes"/>
      <point x="94" y="110"/>
      <point x="193" y="0"/>
      <point x="266" y="0" type="qcurve" smooth="yes"/>
      <point x="652" y="0" type="line" smooth="yes"/>
      <point x="686" y="0"/>
      <point x="759" y="37"/>
      <point x="811" y="130"/>
      <point x="811" y="205" type="qcurve" smooth="yes"/>
    </contour>
  </outline>
</glyph>
<glyph name="uniA909" format="2">
  <advance width="922"/>
  <unicode hex="A909"/>
  <outline>
    <contour>
      <point x="514" y="819" type="line"/>
      <point x="514" y="725" type="line"/>
      <point x="633" y="725" type="line" smooth="yes"/>
      <point x="692" y="724"/>
      <point x="723" y="657"/>
      <point x="723" y="609" type="qcurve" smooth="yes"/>
      <point x="723" y="205" type="line" smooth="yes"/>
      <point x="723" y="94"/>
      <point x="621" y="94" type="qcurve" smooth="yes"/>
      <point x="289" y="92" type="line" smooth="yes"/>
      <point x="207" y="92"/>
      <point x="207" y="197" type="qcurve" smooth="yes"/>
      <point x="207" y="723" type="line"/>
      <point x="307" y="723" type="line"/>
      <point x="307" y="819" type="line"/>
      <point x="207" y="819" type="line"/>
      <point x="207" y="1123" type="line"/>
      <point x="307" y="1063" type="line"/>
      <point x="307" y="1170" type="line"/>
      <point x="207" y="1229" type="line"/>
      <point x="101" y="1229" type="line"/>
      <point x="101" y="207" type="line" smooth="yes"/>
      <point x="101" y="96"/>
      <point x="203" y="0"/>
      <point x="262" y="0" type="qcurve" smooth="yes"/>
      <point x="649" y="0" type="line" smooth="yes"/>
      <point x="724" y="0"/>
      <point x="824" y="111"/>
      <point x="824" y="207" type="qcurve" smooth="yes"/>
      <point x="824" y="619" type="line" smooth="yes"/>
      <point x="824" y="801"/>
      <point x="658" y="819" type="qcurve"/>
    </contour>
  </outline>
</glyph>
<glyph name="uniA90A" format="2">
  <advance width="1024"/>
  <unicode hex="A90A"/>
  <outline>
    <contour>
      <point x="656" y="725" type="line"/>
      <point x="692" y="725" type="line" smooth="yes"/>
      <point x="758" y="725"/>
      <point x="791" y="690"/>
      <point x="791" y="621" type="curve" smooth="yes"/>
      <point x="791" y="92" type="line"/>
      <point x="668" y="92" type="line"/>
      <point x="668" y="0" type="line"/>
      <point x="897" y="0" type="line"/>
      <point x="897" y="615" type="line" smooth="yes"/>
      <point x="897" y="747"/>
      <point x="840" y="815"/>
      <point x="725" y="819" type="curve" smooth="yes"/>
      <point x="623" y="819" type="line"/>
      <point x="150" y="348" type="line"/>
      <point x="101" y="320"/>
      <point x="94" y="276"/>
      <point x="94" y="217" type="curve" smooth="yes"/>
      <point x="94" y="0" type="line"/>
      <point x="434" y="0" type="line"/>
      <point x="434" y="682" type="line" smooth="yes"/>
      <point x="434" y="767"/>
      <point x="392" y="819"/>
      <point x="316" y="819" type="curve" smooth="yes"/>
      <point x="197" y="819" type="line" smooth="yes"/>
      <point x="128" y="816"/>
      <point x="94" y="776"/>
      <point x="94" y="697" type="curve" smooth="yes"/>
      <point x="94" y="557" type="line"/>
      <point x="193" y="557" type="line"/>
      <point x="193" y="629" type="line" smooth="yes"/>
      <point x="193" y="701"/>
      <point x="201" y="727"/>
      <point x="246" y="727" type="curve"/>
      <point x="271" y="725" type="line"/>
      <point x="327" y="725"/>
      <point x="336" y="694"/>
      <point x="336" y="615" type="curve" smooth="yes"/>
      <point x="336" y="94" type="line"/>
      <point x="193" y="92" type="line"/>
      <point x="193" y="213" type="line" smooth="yes"/>
      <point x="193" y="240"/>
      <point x="202" y="265"/>
      <point x="221" y="287" type="curve"/>
    </contour>
  </outline>
</glyph>
<glyph name="uniA90B" format="2">
	<advance width="922"/>
	<unicode hex="A90B"/>
	<note>
		uniA90B
  </note>
	<outline>
		<contour>
			<point x="705" y="479" type="line"/>
			<point x="193" y="479" type="line"/>
			<point x="193" y="604" type="line" smooth="yes"/>
			<point x="193" y="721"/>
			<point x="283" y="723" type="qcurve" smooth="yes"/>
			<point x="606" y="723" type="line" smooth="yes"/>
			<point x="705" y="723"/>
			<point x="705" y="621" type="qcurve" smooth="yes"/>
		</contour>
		<contour>
			<point x="705" y="398" type="line"/>
			<point x="705" y="195" type="line" smooth="yes"/>
			<point x="705" y="92"/>
			<point x="623" y="92" type="qcurve" smooth="yes"/>
			<point x="295" y="94" type="line" smooth="yes"/>
			<point x="193" y="94"/>
			<point x="193" y="203" type="qcurve" smooth="yes"/>
			<point x="193" y="209" type="line"/>
			<point x="375" y="209" type="line"/>
			<point x="375" y="283" type="line"/>
			<point x="94" y="283" type="line"/>
			<point x="94" y="205" type="line" smooth="yes"/>
			<point x="94" y="110"/>
			<point x="193" y="0"/>
			<point x="266" y="0" type="qcurve" smooth="yes"/>
			<point x="652" y="0" type="line" smooth="yes"/>
			<point x="686" y="0"/>
			<point x="759" y="37"/>
			<point x="811" y="130"/>
			<point x="811" y="205" type="qcurve" smooth="yes"/>
			<point x="811" y="615" type="line" smooth="yes"/>
			<point x="811" y="813"/>
			<point x="639" y="819" type="qcurve"/>
			<point x="258" y="819" type="line"/>
			<point x="94" y="800"/>
			<point x="94" y="615" type="qcurve" smooth="yes"/>
			<point x="94" y="398" type="line"/>
		</contour>
	</outline>
</glyph>
<glyph name="uniA90C" format="2">
	<advance width="922"/>
	<unicode hex="A90C"/>
	<note>
		uniA90C
  </note>
	<outline>
		<contour>
			<point x="705" y="426" type="line"/>
			<point x="289" y="424" type="line"/>
			<point x="578" y="723" type="line"/>
			<point x="606" y="723" type="line" smooth="yes"/>
			<point x="705" y="723"/>
			<point x="705" y="621" type="qcurve" smooth="yes"/>
		</contour>
		<contour>
			<point x="193" y="604" type="line"/>
			<point x="193" y="819" type="line"/>
			<point x="94" y="819" type="line"/>
			<point x="94" y="0" type="line"/>
			<point x="340" y="0" type="line"/>
			<point x="340" y="92" type="line"/>
			<point x="193" y="92" type="line"/>
			<point x="193" y="332" type="line"/>
			<point x="705" y="332" type="line"/>
			<point x="705" y="92" type="line"/>
			<point x="570" y="92" type="line"/>
			<point x="570" y="0" type="line"/>
			<point x="811" y="0" type="line"/>
			<point x="811" y="615" type="line" smooth="yes"/>
			<point x="811" y="813"/>
			<point x="639" y="819" type="qcurve"/>
			<point x="541" y="819" type="line"/>
			<point x="193" y="455" type="line"/>
		</contour>
	</outline>
</glyph>
<glyph name="uniA90D" format="2">
	<advance width="922"/>
	<unicode hex="A90D"/>
	<note>
		uniA90D
  </note>
	<outline>
		<contour>
			<point x="549" y="340" type="line"/>
			<point x="549" y="254" type="line"/>
			<point x="705" y="254" type="line"/>
			<point x="705" y="195" type="line" smooth="yes"/>
			<point x="705" y="92"/>
			<point x="623" y="92" type="qcurve" smooth="yes"/>
			<point x="295" y="94" type="line" smooth="yes"/>
			<point x="193" y="94"/>
			<point x="193" y="203" type="qcurve" smooth="yes"/>
			<point x="193" y="604" type="line" smooth="yes"/>
			<point x="193" y="721"/>
			<point x="283" y="723" type="qcurve" smooth="yes"/>
			<point x="606" y="723" type="line" smooth="yes"/>
			<point x="705" y="723"/>
			<point x="705" y="621" type="qcurve" smooth="yes"/>
			<point x="705" y="557" type="line"/>
			<point x="553" y="555" type="line"/>
			<point x="553" y="475" type="line"/>
			<point x="811" y="475" type="line"/>
			<point x="811" y="615" type="line" smooth="yes"/>
			<point x="811" y="813"/>
			<point x="639" y="819" type="qcurve"/>
			<point x="258" y="819" type="line"/>
			<point x="94" y="800"/>
			<point x="94" y="615" type="qcurve" smooth="yes"/>
			<point x="94" y="205" type="line" smooth="yes"/>
			<point x="94" y="110"/>
			<point x="193" y="0"/>
			<point x="266" y="0" type="qcurve" smooth="yes"/>
			<point x="652" y="0" type="line" smooth="yes"/>
			<point x="686" y="0"/>
			<point x="759" y="37"/>
			<point x="811" y="130"/>
			<point x="811" y="205" type="qcurve" smooth="yes"/>
			<point x="811" y="340" type="line"/>
		</contour>
	</outline>
</glyph>
<glyph name="uniA90E" format="2">
	<advance width="922"/>
	<unicode hex="A90E"/>
	<note>
		uniA90E
  </note>
	<outline>
		<contour>
			<point x="348" y="418" type="qcurve"/>
			<point x="348" y="454"/>
			<point x="386" y="498"/>
			<point x="416" y="500" type="qcurve"/>
			<point x="486" y="500"/>
			<point x="486" y="418" type="qcurve"/>
			<point x="480" y="353"/>
			<point x="420" y="353" type="qcurve" smooth="yes"/>
			<point x="363" y="353"/>
		</contour>
		<contour>
			<point x="705" y="94" type="line"/>
			<point x="553" y="94" type="line"/>
			<point x="553" y="0" type="line"/>
			<point x="811" y="0" type="line"/>
			<point x="811" y="615" type="line" smooth="yes"/>
			<point x="811" y="813"/>
			<point x="639" y="819" type="qcurve"/>
			<point x="258" y="819" type="line"/>
			<point x="94" y="800"/>
			<point x="94" y="615" type="qcurve" smooth="yes"/>
			<point x="94" y="582" type="line" smooth="yes"/>
			<point x="94" y="487"/>
			<point x="193" y="377"/>
			<point x="266" y="377" type="qcurve"/>
			<point x="94" y="82" type="line"/>
			<point x="94" y="0" type="line"/>
			<point x="336" y="0" type="line"/>
			<point x="336" y="94" type="line"/>
			<point x="211" y="94" type="line"/>
			<point x="340" y="301" type="line"/>
			<point x="374" y="277"/>
			<point x="414" y="275" type="qcurve" smooth="yes"/>
			<point x="450" y="275"/>
			<point x="521" y="309"/>
			<point x="565" y="375"/>
			<point x="565" y="416" type="qcurve" smooth="yes"/>
			<point x="565" y="489"/>
			<point x="489" y="578"/>
			<point x="422" y="578" type="qcurve" smooth="yes"/>
			<point x="310" y="578"/>
			<point x="287" y="471" type="qcurve"/>
			<point x="193" y="471"/>
			<point x="193" y="580" type="qcurve" smooth="yes"/>
			<point x="193" y="604" type="line" smooth="yes"/>
			<point x="193" y="721"/>
			<point x="283" y="723" type="qcurve" smooth="yes"/>
			<point x="606" y="723" type="line" smooth="yes"/>
			<point x="705" y="723"/>
			<point x="705" y="621" type="qcurve" smooth="yes"/>
		</contour>
	</outline>
</glyph>
<glyph name="uniA90F" format="2">
  <advance width="922"/>
  <unicode hex="A90F"/>
  <note>
uniA90F
</note>
  <outline>
    <contour>
      <point x="193" y="561" type="line"/>
      <point x="193" y="629" type="line" smooth="yes"/>
      <point x="193" y="721"/>
      <point x="283" y="723" type="qcurve" smooth="yes"/>
      <point x="606" y="723" type="line" smooth="yes"/>
      <point x="705" y="723"/>
      <point x="705" y="621" type="qcurve" smooth="yes"/>
      <point x="705" y="463" type="line"/>
      <point x="668" y="492"/>
      <point x="594" y="492" type="qcurve" smooth="yes"/>
      <point x="258" y="492" type="line"/>
      <point x="175" y="482"/>
      <point x="94" y="405"/>
      <point x="94" y="316" type="qcurve" smooth="yes"/>
      <point x="94" y="78" type="line"/>
      <point x="33" y="78" type="line"/>
      <point x="33" y="0" type="line"/>
      <point x="193" y="0" type="line"/>
      <point x="193" y="314" type="line" smooth="yes"/>
      <point x="193" y="353"/>
      <point x="223" y="394"/>
      <point x="283" y="396" type="qcurve" smooth="yes"/>
      <point x="606" y="396" type="line" smooth="yes"/>
      <point x="705" y="396"/>
      <point x="705" y="293" type="qcurve" smooth="yes"/>
      <point x="705" y="195" type="line" smooth="yes"/>
      <point x="705" y="94"/>
      <point x="623" y="94" type="qcurve" smooth="yes"/>
      <point x="582" y="94" type="line"/>
      <point x="582" y="0" type="line"/>
      <point x="652" y="0" type="line" smooth="yes"/>
      <point x="686" y="0"/>
      <point x="759" y="37"/>
      <point x="811" y="130"/>
      <point x="811" y="205" type="qcurve" smooth="yes"/>
      <point x="811" y="439" type="line"/>
      <point x="811" y="615" type="line" smooth="yes"/>
      <point x="811" y="813"/>
      <point x="639" y="819" type="qcurve"/>
      <point x="258" y="819" type="line"/>
      <point x="94" y="800"/>
      <point x="94" y="615" type="qcurve" smooth="yes"/>
      <point x="94" y="561" type="line"/>
    </contour>
  </outline>
</glyph>
<glyph name="uniA910" format="2">
  <advance width="922"/>
  <unicode hex="A910"/>
  <outline>
    <contour>
      <point x="381" y="-287" type="line"/>
      <point x="295" y="-287" type="line" smooth="yes"/>
      <point x="227" y="-287"/>
      <point x="193" y="-251"/>
      <point x="193" y="-178" type="curve" smooth="yes"/>
      <point x="193" y="445" type="line"/>
      <point x="224" y="500"/>
      <point x="264" y="576"/>
      <point x="306" y="628" type="curve" smooth="yes"/>
      <point x="348" y="681"/>
      <point x="406" y="721"/>
      <point x="477" y="725" type="curve"/>
      <point x="625" y="725"/>
      <point x="705" y="619"/>
      <point x="705" y="490" type="curve" smooth="yes"/>
      <point x="705" y="423"/>
      <point x="674" y="332"/>
      <point x="564" y="268" type="curve" smooth="yes"/>
      <point x="508" y="235"/>
      <point x="433" y="219"/>
      <point x="336" y="219" type="curve"/>
      <point x="639" y="82" type="line"/>
      <point x="328" y="82" type="line"/>
      <point x="328" y="0" type="line"/>
      <point x="783" y="0" type="line"/>
      <point x="783" y="107" type="line"/>
      <point x="582" y="205" type="line"/>
      <point x="645" y="205"/>
      <point x="726" y="258"/>
      <point x="774" y="346" type="curve" smooth="yes"/>
      <point x="799" y="390"/>
      <point x="811" y="439"/>
      <point x="811" y="492" type="curve"/>
      <point x="796" y="732"/>
      <point x="652" y="819"/>
      <point x="484" y="819" type="curve"/>
      <point x="348" y="814"/>
      <point x="260" y="752"/>
      <point x="193" y="621" type="curve"/>
      <point x="193" y="819" type="line"/>
      <point x="94" y="819" type="line"/>
      <point x="94" y="561" type="line"/>
      <point x="94" y="217" type="line"/>
      <point x="94" y="-176" type="line" smooth="yes"/>
      <point x="94" y="-303"/>
      <point x="169" y="-381"/>
      <point x="266" y="-381" type="curve" smooth="yes"/>
      <point x="381" y="-381" type="line"/>
    </contour>
  </outline>
</glyph>
<glyph name="uniA911" format="2">
	<advance width="922"/>
	<unicode hex="A911"/>
	<note>
		uniA911
  </note>
	<outline>
		<contour>
			<point x="205" y="13" type="line"/>
			<point x="228" y="0"/>
			<point x="260" y="0" type="qcurve" smooth="yes"/>
			<point x="647" y="0" type="line" smooth="yes"/>
			<point x="723" y="0"/>
			<point x="824" y="109"/>
			<point x="824" y="205" type="qcurve" smooth="yes"/>
			<point x="824" y="615" type="line" smooth="yes"/>
			<point x="824" y="801"/>
			<point x="658" y="819" type="qcurve"/>
			<point x="273" y="819" type="line"/>
			<point x="101" y="813"/>
			<point x="101" y="615" type="qcurve" smooth="yes"/>
			<point x="101" y="475" type="line"/>
			<point x="359" y="475" type="line"/>
			<point x="359" y="555" type="line"/>
			<point x="205" y="557" type="line"/>
			<point x="205" y="621" type="line" smooth="yes"/>
			<point x="205" y="656"/>
			<point x="246" y="723"/>
			<point x="305" y="723" type="qcurve" smooth="yes"/>
			<point x="633" y="723" type="line" smooth="yes"/>
			<point x="723" y="721"/>
			<point x="723" y="604" type="qcurve" smooth="yes"/>
			<point x="723" y="203" type="line"/>
			<point x="730" y="94"/>
			<point x="619" y="94" type="qcurve" smooth="yes"/>
			<point x="289" y="92" type="line" smooth="yes"/>
			<point x="244" y="92"/>
			<point x="205" y="155"/>
			<point x="205" y="195" type="qcurve" smooth="yes"/>
			<point x="205" y="254" type="line"/>
			<point x="363" y="254" type="line"/>
			<point x="363" y="340" type="line"/>
			<point x="101" y="340" type="line"/>
			<point x="101" y="205" type="line"/>
			<point x="101" y="-201" type="line" smooth="yes"/>
			<point x="101" y="-312"/>
			<point x="203" y="-410"/>
			<point x="260" y="-410" type="qcurve" smooth="yes"/>
			<point x="647" y="-410" type="line" smooth="yes"/>
			<point x="719" y="-410"/>
			<point x="824" y="-325"/>
			<point x="824" y="-230" type="qcurve" smooth="yes"/>
			<point x="824" y="-94" type="line"/>
			<point x="565" y="-94" type="line"/>
			<point x="565" y="-178" type="line"/>
			<point x="721" y="-178" type="line"/>
			<point x="721" y="-236"/>
			<point x="717" y="-250" type="qcurve"/>
			<point x="711" y="-286"/>
			<point x="668" y="-316"/>
			<point x="619" y="-316" type="qcurve" smooth="yes"/>
			<point x="289" y="-314" type="line" smooth="yes"/>
			<point x="247" y="-314"/>
			<point x="205" y="-253"/>
			<point x="205" y="-211" type="qcurve" smooth="yes"/>
		</contour>
	</outline>
</glyph>
<glyph name="uniA912" format="2">
	<advance width="922"/>
	<unicode hex="A912"/>
	<note>
		uniA912
  </note>
	<outline>
		<contour>
			<point x="672" y="142" type="qcurve"/>
			<point x="661" y="78"/>
			<point x="594" y="78" type="qcurve"/>
			<point x="535" y="86"/>
			<point x="535" y="146" type="qcurve" smooth="yes"/>
			<point x="535" y="212"/>
			<point x="594" y="217" type="qcurve"/>
			<point x="665" y="217"/>
		</contour>
		<contour>
			<point x="815" y="307" type="qcurve"/>
			<point x="809" y="404"/>
			<point x="712" y="537"/>
			<point x="619" y="555" type="qcurve" smooth="yes"/>
			<point x="581" y="563"/>
			<point x="533" y="563" type="qcurve" smooth="yes"/>
			<point x="425" y="563"/>
			<point x="249" y="460"/>
			<point x="193" y="381" type="qcurve"/>
			<point x="193" y="719" type="line"/>
			<point x="807" y="606" type="line"/>
			<point x="807" y="692" type="line"/>
			<point x="193" y="819" type="line"/>
			<point x="94" y="819" type="line"/>
			<point x="94" y="0" type="line"/>
			<point x="193" y="0" type="line"/>
			<point x="193" y="180" type="line"/>
			<point x="220" y="264"/>
			<point x="330" y="393"/>
			<point x="467" y="461"/>
			<point x="537" y="461" type="qcurve"/>
			<point x="638" y="450"/>
			<point x="705" y="351"/>
			<point x="705" y="252" type="qcurve"/>
			<point x="690" y="272"/>
			<point x="655" y="295"/>
			<point x="624" y="303"/>
			<point x="597" y="303"/>
			<point x="586" y="303" type="qcurve" smooth="yes"/>
			<point x="512" y="303"/>
			<point x="449" y="198"/>
			<point x="449" y="137" type="qcurve" smooth="yes"/>
			<point x="450" y="73"/>
			<point x="548" y="0"/>
			<point x="623" y="0" type="qcurve" smooth="yes"/>
			<point x="815" y="5"/>
		</contour>
	</outline>
</glyph>
<glyph name="uniA913" format="2">
	<advance width="922"/>
	<unicode hex="A913"/>
	<note>
		uniA913
  </note>
	<outline>
		<contour>
			<point x="402" y="819" type="line"/>
			<point x="258" y="819" type="line"/>
			<point x="94" y="800"/>
			<point x="94" y="615" type="qcurve" smooth="yes"/>
			<point x="94" y="205" type="line" smooth="yes"/>
			<point x="94" y="110"/>
			<point x="193" y="0"/>
			<point x="266" y="0" type="qcurve" smooth="yes"/>
			<point x="652" y="0" type="line" smooth="yes"/>
			<point x="686" y="0"/>
			<point x="759" y="37"/>
			<point x="811" y="130"/>
			<point x="811" y="205" type="qcurve" smooth="yes"/>
			<point x="811" y="1229" type="line"/>
			<point x="705" y="1229" type="line"/>
			<point x="606" y="1161" type="line"/>
			<point x="606" y="1045" type="line"/>
			<point x="705" y="1118" type="line"/>
			<point x="705" y="819" type="line"/>
			<point x="606" y="819" type="line"/>
			<point x="606" y="721" type="line"/>
			<point x="705" y="721" type="line"/>
			<point x="705" y="195" type="line" smooth="yes"/>
			<point x="705" y="92"/>
			<point x="623" y="92" type="qcurve" smooth="yes"/>
			<point x="295" y="94" type="line" smooth="yes"/>
			<point x="193" y="94"/>
			<point x="193" y="203" type="qcurve" smooth="yes"/>
			<point x="193" y="604" type="line" smooth="yes"/>
			<point x="193" y="721"/>
			<point x="283" y="723" type="qcurve" smooth="yes"/>
			<point x="402" y="723" type="line"/>
		</contour>
	</outline>
</glyph>
<glyph name="uniA914" format="2">
  <advance width="922"/>
  <unicode hex="A914"/>
  <outline>
    <contour>
      <point x="414" y="-314" type="line"/>
      <point x="377" y="-314" type="line"/>
      <point x="295" y="-314" type="line" smooth="yes"/>
      <point x="193" y="-314"/>
      <point x="193" y="-207" type="qcurve" smooth="yes"/>
      <point x="193" y="13" type="line"/>
      <point x="217" y="0"/>
      <point x="266" y="0" type="qcurve" smooth="yes"/>
      <point x="652" y="0" type="line" smooth="yes"/>
      <point x="686" y="0"/>
      <point x="759" y="37"/>
      <point x="811" y="130"/>
      <point x="811" y="205" type="qcurve" smooth="yes"/>
      <point x="811" y="340" type="line"/>
      <point x="471" y="443" type="line"/>
      <point x="193" y="537" type="line"/>
      <point x="193" y="604" type="line" smooth="yes"/>
      <point x="193" y="721"/>
      <point x="283" y="723" type="qcurve" smooth="yes"/>
      <point x="606" y="723" type="line" smooth="yes"/>
      <point x="705" y="723"/>
      <point x="705" y="621" type="qcurve" smooth="yes"/>
      <point x="705" y="590" type="line"/>
      <point x="602" y="588" type="line"/>
      <point x="602" y="520" type="line"/>
      <point x="811" y="520" type="line"/>
      <point x="811" y="615" type="line" smooth="yes"/>
      <point x="811" y="813"/>
      <point x="639" y="819" type="qcurve"/>
      <point x="258" y="819" type="line"/>
      <point x="94" y="800"/>
      <point x="94" y="615" type="qcurve" smooth="yes"/>
      <point x="94" y="479" type="line"/>
      <point x="430" y="365" type="line"/>
      <point x="705" y="275" type="line"/>
      <point x="705" y="195" type="line" smooth="yes"/>
      <point x="705" y="92"/>
      <point x="623" y="92" type="qcurve" smooth="yes"/>
      <point x="295" y="94" type="line" smooth="yes"/>
      <point x="193" y="94"/>
      <point x="193" y="203" type="qcurve" smooth="yes"/>
      <point x="193" y="232" type="line"/>
      <point x="336" y="232" type="line"/>
      <point x="336" y="312" type="line"/>
      <point x="94" y="312" type="line"/>
      <point x="94" y="209" type="line"/>
      <point x="94" y="-205" type="line" smooth="yes"/>
      <point x="94" y="-303"/>
      <point x="200" y="-410"/>
      <point x="266" y="-410" type="qcurve" smooth="yes"/>
      <point x="414" y="-410" type="line"/>
    </contour>
  </outline>
</glyph>
<glyph name="uniA915" format="2">
	<advance width="922"/>
	<unicode hex="A915"/>
	<note>
		uniA915
  </note>
	<outline>
		<contour>
			<point x="193" y="303" type="line"/>
			<point x="193" y="604" type="line" smooth="yes"/>
			<point x="193" y="721"/>
			<point x="283" y="723" type="qcurve" smooth="yes"/>
			<point x="606" y="723" type="line" smooth="yes"/>
			<point x="705" y="723"/>
			<point x="705" y="621" type="qcurve" smooth="yes"/>
			<point x="705" y="557" type="line"/>
		</contour>
		<contour>
			<point x="193" y="203" type="qcurve"/>
			<point x="811" y="512" type="line"/>
			<point x="811" y="615" type="line" smooth="yes"/>
			<point x="811" y="813"/>
			<point x="639" y="819" type="qcurve"/>
			<point x="258" y="819" type="line"/>
			<point x="94" y="800"/>
			<point x="94" y="615" type="qcurve" smooth="yes"/>
			<point x="94" y="205" type="line" smooth="yes"/>
			<point x="94" y="110"/>
			<point x="193" y="0"/>
			<point x="266" y="0" type="qcurve" smooth="yes"/>
			<point x="652" y="0" type="line" smooth="yes"/>
			<point x="686" y="0"/>
			<point x="759" y="37"/>
			<point x="811" y="130"/>
			<point x="811" y="205" type="qcurve" smooth="yes"/>
			<point x="811" y="312" type="line"/>
			<point x="549" y="312" type="line"/>
			<point x="549" y="230" type="line"/>
			<point x="705" y="230" type="line"/>
			<point x="705" y="195" type="line" smooth="yes"/>
			<point x="705" y="92"/>
			<point x="623" y="92" type="qcurve" smooth="yes"/>
			<point x="295" y="94" type="line" smooth="yes"/>
			<point x="193" y="94"/>
		</contour>
	</outline>
</glyph>
<glyph name="uniA916" format="2">
	<advance width="922"/>
	<unicode hex="A916"/>
	<note>
		uniA916
  </note>
	<outline>
		<contour>
			<point x="537" y="1004" type="line"/>
			<point x="537" y="918" type="line"/>
			<point x="811" y="918" type="line"/>
			<point x="811" y="1032" type="line" smooth="yes"/>
			<point x="811" y="1127"/>
			<point x="725" y="1215"/>
			<point x="639" y="1229" type="qcurve"/>
			<point x="266" y="1229" type="line"/>
			<point x="94" y="1219"/>
			<point x="94" y="1012" type="qcurve" smooth="yes"/>
			<point x="94" y="738" type="line"/>
			<point x="94" y="230" type="line" smooth="yes"/>
			<point x="94" y="91"/>
			<point x="178" y="0"/>
			<point x="254" y="0" type="qcurve" smooth="yes"/>
			<point x="324" y="0" type="line"/>
			<point x="324" y="84" type="line"/>
			<point x="283" y="84" type="line"/>
			<point x="235" y="81"/>
			<point x="201" y="142"/>
			<point x="201" y="213" type="qcurve" smooth="yes"/>
			<point x="201" y="553" type="line" smooth="yes"/>
			<point x="201" y="696"/>
			<point x="299" y="725" type="qcurve"/>
			<point x="623" y="725" type="line" smooth="yes"/>
			<point x="683" y="724"/>
			<point x="713" y="661"/>
			<point x="713" y="596" type="qcurve" smooth="yes"/>
			<point x="713" y="0" type="line"/>
			<point x="873" y="0" type="line"/>
			<point x="873" y="86" type="line"/>
			<point x="811" y="86" type="line"/>
			<point x="811" y="592" type="line" smooth="yes"/>
			<point x="811" y="725"/>
			<point x="737" y="810"/>
			<point x="647" y="826" type="qcurve"/>
			<point x="312" y="826" type="line" smooth="yes"/>
			<point x="219" y="826"/>
			<point x="201" y="778" type="qcurve"/>
			<point x="201" y="1014" type="line" smooth="yes"/>
			<point x="201" y="1056"/>
			<point x="249" y="1129"/>
			<point x="299" y="1129" type="qcurve" smooth="yes"/>
			<point x="602" y="1129" type="line" smooth="yes"/>
			<point x="713" y="1129"/>
			<point x="713" y="1057" type="qcurve" smooth="yes"/>
			<point x="713" y="1004" type="line"/>
		</contour>
	</outline>
</glyph>
<glyph name="uniA917" format="2">
	<advance width="922"/>
	<unicode hex="A917"/>
	<note>
		uniA917
  </note>
	<outline>
		<contour>
			<point x="643" y="92" type="line"/>
			<point x="262" y="94" type="line"/>
			<point x="451" y="287" type="line"/>
		</contour>
		<contour>
			<point x="570" y="819" type="line"/>
			<point x="570" y="723" type="line"/>
			<point x="705" y="723" type="line"/>
			<point x="705" y="174" type="line"/>
			<point x="451" y="418" type="line"/>
			<point x="193" y="174" type="line"/>
			<point x="193" y="723" type="line"/>
			<point x="320" y="723" type="line"/>
			<point x="320" y="819" type="line"/>
			<point x="94" y="819" type="line"/>
			<point x="94" y="205" type="line" smooth="yes"/>
			<point x="94" y="110"/>
			<point x="193" y="0"/>
			<point x="266" y="0" type="qcurve" smooth="yes"/>
			<point x="652" y="0" type="line" smooth="yes"/>
			<point x="686" y="0"/>
			<point x="759" y="37"/>
			<point x="811" y="130"/>
			<point x="811" y="205" type="qcurve" smooth="yes"/>
			<point x="811" y="819" type="line"/>
		</contour>
	</outline>
</glyph>
<glyph name="uniA918" format="2">
	<advance width="922"/>
	<unicode hex="A918"/>
	<note>
		uniA918
  </note>
	<outline>
		<contour>
			<point x="295" y="512" type="line"/>
			<point x="295" y="582" type="line"/>
			<point x="193" y="582" type="line"/>
			<point x="193" y="604" type="line" smooth="yes"/>
			<point x="193" y="721"/>
			<point x="283" y="723" type="qcurve" smooth="yes"/>
			<point x="606" y="723" type="line" smooth="yes"/>
			<point x="705" y="723"/>
			<point x="705" y="621" type="qcurve" smooth="yes"/>
			<point x="705" y="606" type="line"/>
			<point x="705" y="582" type="line"/>
			<point x="94" y="299" type="line"/>
			<point x="94" y="205" type="line" smooth="yes"/>
			<point x="94" y="110"/>
			<point x="193" y="0"/>
			<point x="266" y="0" type="qcurve" smooth="yes"/>
			<point x="652" y="0" type="line" smooth="yes"/>
			<point x="686" y="0"/>
			<point x="759" y="37"/>
			<point x="811" y="130"/>
			<point x="811" y="205" type="qcurve" smooth="yes"/>
			<point x="811" y="275" type="line"/>
			<point x="598" y="275" type="line" smooth="yes"/>
			<point x="520" y="275"/>
			<point x="348" y="208"/>
			<point x="226" y="124"/>
			<point x="226" y="109" type="qcurve" smooth="yes"/>
			<point x="226" y="90"/>
			<point x="246" y="90" type="qcurve" smooth="yes"/>
			<point x="268" y="90"/>
			<point x="428" y="157"/>
			<point x="545" y="197"/>
			<point x="606" y="197" type="qcurve" smooth="yes"/>
			<point x="705" y="197" type="line"/>
			<point x="705" y="170" type="line" smooth="yes"/>
			<point x="705" y="92"/>
			<point x="623" y="92" type="qcurve" smooth="yes"/>
			<point x="295" y="94" type="line" smooth="yes"/>
			<point x="193" y="94"/>
			<point x="193" y="203" type="qcurve"/>
			<point x="195" y="234" type="line"/>
			<point x="811" y="533" type="line"/>
			<point x="811" y="586" type="line"/>
			<point x="811" y="615" type="line" smooth="yes"/>
			<point x="811" y="813"/>
			<point x="639" y="819" type="qcurve"/>
			<point x="258" y="819" type="line"/>
			<point x="94" y="800"/>
			<point x="94" y="615" type="qcurve" smooth="yes"/>
			<point x="94" y="512" type="line"/>
		</contour>
	</outline>
</glyph>
<glyph name="uniA919" format="2">
	<advance width="922"/>
	<unicode hex="A919"/>
	<note>
		uniA919
  </note>
	<outline>
		<contour>
			<point x="705" y="252" type="line"/>
			<point x="690" y="272"/>
			<point x="655" y="295"/>
			<point x="624" y="303"/>
			<point x="597" y="303"/>
			<point x="586" y="303" type="qcurve" smooth="yes"/>
			<point x="512" y="303"/>
			<point x="449" y="198"/>
			<point x="449" y="137" type="qcurve" smooth="yes"/>
			<point x="450" y="75"/>
			<point x="544" y="0"/>
			<point x="623" y="0" type="qcurve" smooth="yes"/>
			<point x="762" y="0"/>
			<point x="811" y="144" type="qcurve"/>
			<point x="811" y="615" type="line" smooth="yes"/>
			<point x="811" y="813"/>
			<point x="639" y="819" type="qcurve"/>
			<point x="459" y="819" type="line"/>
			<point x="193" y="381" type="line"/>
			<point x="193" y="604" type="line"/>
			<point x="193" y="819" type="line"/>
			<point x="94" y="819" type="line"/>
			<point x="94" y="0" type="line"/>
			<point x="193" y="0" type="line"/>
			<point x="193" y="180" type="line"/>
			<point x="520" y="723" type="line"/>
			<point x="606" y="723" type="line" smooth="yes"/>
			<point x="705" y="723"/>
			<point x="705" y="621" type="qcurve" smooth="yes"/>
			<point x="705" y="332" type="line"/>
		</contour>
		<contour>
			<point x="672" y="142" type="qcurve"/>
			<point x="661" y="78"/>
			<point x="594" y="78" type="qcurve"/>
			<point x="535" y="86"/>
			<point x="535" y="146" type="qcurve" smooth="yes"/>
			<point x="535" y="212"/>
			<point x="594" y="217" type="qcurve"/>
			<point x="665" y="217"/>
		</contour>
	</outline>
</glyph>
<glyph name="uniA91A" format="2">
  <advance width="922"/>
  <unicode hex="A91A"/>
  <note>
uniA91A
</note>
  <outline>
    <contour>
      <point x="193" y="94" type="line"/>
      <point x="193" y="557" type="line"/>
      <point x="357" y="723" type="line"/>
      <point x="606" y="723" type="line" smooth="yes"/>
      <point x="705" y="723"/>
      <point x="705" y="621" type="qcurve" smooth="yes"/>
      <point x="705" y="-215" type="line" smooth="yes"/>
      <point x="705" y="-318"/>
      <point x="623" y="-318" type="qcurve" smooth="yes"/>
      <point x="541" y="-320" type="line"/>
      <point x="541" y="-410" type="line"/>
      <point x="652" y="-410" type="line" smooth="yes"/>
      <point x="709" y="-410"/>
      <point x="811" y="-316"/>
      <point x="811" y="-205" type="qcurve" smooth="yes"/>
      <point x="811" y="615" type="line" smooth="yes"/>
      <point x="811" y="813"/>
      <point x="639" y="819" type="qcurve"/>
      <point x="324" y="819" type="line"/>
      <point x="193" y="688" type="line"/>
      <point x="193" y="819" type="line"/>
      <point x="94" y="819" type="line"/>
      <point x="94" y="0" type="line"/>
      <point x="361" y="0" type="line"/>
      <point x="361" y="94" type="line"/>
    </contour>
  </outline>
</glyph>
<glyph name="uniA91B" format="2">
  <advance width="1290"/>
  <unicode hex="A91B"/>
  <outline>
    <contour>
      <point x="1061" y="92" type="line"/>
      <point x="910" y="92" type="line"/>
      <point x="910" y="0" type="line"/>
      <point x="1168" y="0" type="line"/>
      <point x="1168" y="615" type="line" smooth="yes"/>
      <point x="1168" y="747"/>
      <point x="1111" y="815"/>
      <point x="996" y="819" type="curve" smooth="yes"/>
      <point x="778" y="819" type="line" smooth="yes"/>
      <point x="662" y="815"/>
      <point x="590" y="747"/>
      <point x="590" y="615" type="curve" smooth="yes"/>
      <point x="590" y="205" type="line" smooth="yes"/>
      <point x="590" y="140"/>
      <point x="550" y="92"/>
      <point x="471" y="92" type="curve" smooth="yes"/>
      <point x="295" y="94" type="line" smooth="yes"/>
      <point x="227" y="94"/>
      <point x="193" y="130"/>
      <point x="193" y="203" type="curve" smooth="yes"/>
      <point x="193" y="723" type="line"/>
      <point x="369" y="723" type="line"/>
      <point x="369" y="819" type="line"/>
      <point x="94" y="819" type="line"/>
      <point x="94" y="205" type="line" smooth="yes"/>
      <point x="94" y="74"/>
      <point x="178" y="0"/>
      <point x="266" y="0" type="curve" smooth="yes"/>
      <point x="496" y="0" type="line" smooth="yes"/>
      <point x="600" y="0"/>
      <point x="688" y="60"/>
      <point x="688" y="203" type="curve" smooth="yes"/>
      <point x="688" y="604" type="line"/>
      <point x="683" y="683"/>
      <point x="718" y="723"/>
      <point x="791" y="723" type="curve" smooth="yes"/>
      <point x="963" y="723" type="line" smooth="yes"/>
      <point x="1028" y="723"/>
      <point x="1061" y="689"/>
      <point x="1061" y="621" type="curve" smooth="yes"/>
    </contour>
  </outline>
</glyph>
<glyph name="uniA91C" format="2">
	<advance width="1168"/>
	<unicode hex="A91C"/>
	<note>
		uniA91C
  </note>
	<outline>
		<contour>
			<point x="1061" y="199" type="line"/>
			<point x="1061" y="615" type="line" smooth="yes"/>
			<point x="1061" y="813"/>
			<point x="889" y="819" type="qcurve"/>
			<point x="787" y="819" type="line"/>
			<point x="787" y="723" type="line"/>
			<point x="856" y="723" type="line" smooth="yes"/>
			<point x="955" y="723"/>
			<point x="955" y="621" type="qcurve" smooth="yes"/>
			<point x="955" y="185" type="line" smooth="yes"/>
			<point x="955" y="82"/>
			<point x="873" y="82" type="qcurve" smooth="yes"/>
			<point x="725" y="80" type="line" smooth="yes"/>
			<point x="631" y="80"/>
			<point x="631" y="205" type="qcurve" smooth="yes"/>
			<point x="631" y="615" type="line" smooth="yes"/>
			<point x="631" y="813"/>
			<point x="459" y="819" type="qcurve"/>
			<point x="258" y="819" type="line"/>
			<point x="94" y="800"/>
			<point x="94" y="615" type="qcurve" smooth="yes"/>
			<point x="94" y="205" type="line" smooth="yes"/>
			<point x="94" y="110"/>
			<point x="193" y="0"/>
			<point x="266" y="0" type="qcurve" smooth="yes"/>
			<point x="361" y="0" type="line"/>
			<point x="361" y="92" type="line"/>
			<point x="295" y="94" type="line" smooth="yes"/>
			<point x="193" y="94"/>
			<point x="193" y="203" type="qcurve" smooth="yes"/>
			<point x="193" y="604" type="line" smooth="yes"/>
			<point x="193" y="721"/>
			<point x="283" y="723" type="qcurve" smooth="yes"/>
			<point x="426" y="723" type="line" smooth="yes"/>
			<point x="525" y="723"/>
			<point x="525" y="621" type="qcurve" smooth="yes"/>
			<point x="525" y="195" type="line" smooth="yes"/>
			<point x="525" y="100"/>
			<point x="624" y="-10"/>
			<point x="697" y="-10" type="qcurve" smooth="yes"/>
			<point x="901" y="-10" type="line" smooth="yes"/>
			<point x="929" y="-10"/>
			<point x="955" y="0" type="qcurve"/>
			<point x="955" y="-217" type="line" smooth="yes"/>
			<point x="955" y="-316"/>
			<point x="873" y="-316" type="qcurve" smooth="yes"/>
			<point x="312" y="-314" type="line" smooth="yes"/>
			<point x="217" y="-314"/>
			<point x="217" y="-197" type="qcurve" smooth="yes"/>
			<point x="217" y="-168" type="line"/>
			<point x="381" y="-168" type="line"/>
			<point x="381" y="-90" type="line"/>
			<point x="111" y="-90" type="line"/>
			<point x="111" y="-207" type="line" smooth="yes"/>
			<point x="111" y="-302"/>
			<point x="209" y="-410"/>
			<point x="283" y="-410" type="qcurve" smooth="yes"/>
			<point x="901" y="-410" type="line" smooth="yes"/>
			<point x="960" y="-410"/>
			<point x="1061" y="-317"/>
			<point x="1061" y="-207" type="qcurve" smooth="yes"/>
		</contour>
	</outline>
</glyph>
<glyph name="uniA91E" format="2">
  <advance width="922"/>
  <unicode hex="A91E"/>
  <note>
uniA91E
</note>
  <outline>
    <contour>
      <point x="705" y="13" type="qcurve"/>
      <point x="705" y="-211" type="line" smooth="yes"/>
      <point x="705" y="-258"/>
      <point x="663" y="-314"/>
      <point x="623" y="-314" type="qcurve" smooth="yes"/>
      <point x="295" y="-316" type="line" smooth="yes"/>
      <point x="248" y="-316"/>
      <point x="206" y="-286"/>
      <point x="199" y="-250" type="qcurve" smooth="yes"/>
      <point x="197" y="-236"/>
      <point x="197" y="-178" type="qcurve"/>
      <point x="348" y="-178" type="line"/>
      <point x="348" y="-94" type="line"/>
      <point x="94" y="-94" type="line"/>
      <point x="94" y="-230" type="line" smooth="yes"/>
      <point x="94" y="-325"/>
      <point x="197" y="-410"/>
      <point x="266" y="-410" type="qcurve" smooth="yes"/>
      <point x="652" y="-410" type="line" smooth="yes"/>
      <point x="709" y="-410"/>
      <point x="811" y="-312"/>
      <point x="811" y="-201" type="qcurve" smooth="yes"/>
      <point x="811" y="205" type="line"/>
      <point x="811" y="340" type="line"/>
      <point x="549" y="340" type="line"/>
      <point x="549" y="254" type="line"/>
      <point x="705" y="254" type="line"/>
      <point x="705" y="195" type="line" smooth="yes"/>
      <point x="705" y="92"/>
      <point x="623" y="92" type="qcurve" smooth="yes"/>
      <point x="295" y="94" type="line" smooth="yes"/>
      <point x="193" y="94"/>
      <point x="193" y="203" type="qcurve" smooth="yes"/>
      <point x="193" y="604" type="line" smooth="yes"/>
      <point x="193" y="721"/>
      <point x="283" y="723" type="qcurve" smooth="yes"/>
      <point x="606" y="723" type="line" smooth="yes"/>
      <point x="705" y="723"/>
      <point x="705" y="621" type="qcurve" smooth="yes"/>
      <point x="705" y="557" type="line"/>
      <point x="553" y="555" type="line"/>
      <point x="553" y="475" type="line"/>
      <point x="811" y="475" type="line"/>
      <point x="811" y="615" type="line" smooth="yes"/>
      <point x="811" y="813"/>
      <point x="639" y="819" type="qcurve"/>
      <point x="258" y="819" type="line"/>
      <point x="94" y="800"/>
      <point x="94" y="615" type="qcurve" smooth="yes"/>
      <point x="94" y="205" type="line" smooth="yes"/>
      <point x="94" y="110"/>
      <point x="193" y="0"/>
      <point x="266" y="0" type="qcurve" smooth="yes"/>
      <point x="652" y="0" type="line" smooth="yes"/>
      <point x="684" y="0"/>
    </contour>
  </outline>
</glyph>
<glyph name="uniA91F" format="2">
	<advance width="922"/>
	<unicode hex="A91F"/>
	<note>
		uniA91F
  </note>
	<outline>
		<contour>
			<point x="193" y="254" type="line"/>
			<point x="287" y="299"/>
			<point x="326" y="357" type="qcurve" smooth="yes"/>
			<point x="375" y="427"/>
			<point x="381" y="539" type="qcurve"/>
			<point x="381" y="819" type="line"/>
			<point x="94" y="819" type="line"/>
			<point x="94" y="205" type="line" smooth="yes"/>
			<point x="94" y="107"/>
			<point x="200" y="0"/>
			<point x="266" y="0" type="qcurve" smooth="yes"/>
			<point x="393" y="0" type="line"/>
			<point x="705" y="312" type="line"/>
			<point x="705" y="-215" type="line" smooth="yes"/>
			<point x="705" y="-318"/>
			<point x="623" y="-318" type="qcurve" smooth="yes"/>
			<point x="578" y="-318" type="line"/>
			<point x="578" y="-410" type="line"/>
			<point x="652" y="-410" type="line" smooth="yes"/>
			<point x="709" y="-410"/>
			<point x="811" y="-316"/>
			<point x="811" y="-205" type="qcurve" smooth="yes"/>
			<point x="811" y="819" type="line"/>
			<point x="705" y="819" type="line"/>
			<point x="705" y="723" type="line"/>
			<point x="705" y="455" type="line"/>
			<point x="342" y="92" type="line"/>
			<point x="295" y="94" type="line"/>
			<point x="193" y="94"/>
			<point x="193" y="203" type="qcurve" smooth="yes"/>
		</contour>
		<contour>
			<point x="193" y="357" type="qcurve"/>
			<point x="193" y="723" type="line"/>
			<point x="287" y="723" type="line"/>
			<point x="287" y="539" type="line" smooth="yes"/>
			<point x="287" y="464"/>
			<point x="237" y="369"/>
		</contour>
	</outline>
</glyph>
<glyph name="uniA920" format="2">
  <advance width="922"/>
  <unicode hex="A920"/>
  <note>
		uniA920
  </note>
  <outline>
    <contour>
      <point x="303" y="266" type="line"/>
      <point x="303" y="348" type="line"/>
      <point x="94" y="348" type="line"/>
      <point x="94" y="205" type="line" smooth="yes"/>
      <point x="94" y="110"/>
      <point x="193" y="0"/>
      <point x="266" y="0" type="qcurve" smooth="yes"/>
      <point x="652" y="0" type="line" smooth="yes"/>
      <point x="686" y="0"/>
      <point x="759" y="37"/>
      <point x="811" y="130"/>
      <point x="811" y="205" type="qcurve" smooth="yes"/>
      <point x="811" y="819" type="line"/>
      <point x="680" y="819" type="line"/>
      <point x="443" y="639" type="line"/>
      <point x="213" y="819" type="line"/>
      <point x="94" y="819" type="line"/>
      <point x="94" y="545" type="line"/>
      <point x="193" y="545" type="line"/>
      <point x="193" y="715" type="line"/>
      <point x="443" y="522" type="line"/>
      <point x="705" y="715" type="line"/>
      <point x="705" y="195" type="line" smooth="yes"/>
      <point x="705" y="92"/>
      <point x="623" y="92" type="qcurve" smooth="yes"/>
      <point x="295" y="94" type="line" smooth="yes"/>
      <point x="193" y="94"/>
      <point x="193" y="203" type="qcurve" smooth="yes"/>
      <point x="193" y="266" type="line"/>
    </contour>
  </outline>
</glyph>
<glyph name="uniA921" format="2">
  <advance width="922"/>
  <unicode hex="A921"/>
  <outline>
    <contour>
      <point x="705" y="770" type="line"/>
      <point x="705" y="162" type="line"/>
      <point x="197" y="819" type="line"/>
      <point x="94" y="819" type="line"/>
      <point x="94" y="78" type="line"/>
      <point x="94" y="0" type="line"/>
      <point x="336" y="0" type="line"/>
      <point x="336" y="86" type="line"/>
      <point x="193" y="86" type="line"/>
      <point x="193" y="674" type="line"/>
      <point x="709" y="0" type="line"/>
      <point x="811" y="0" type="line"/>
      <point x="811" y="439" type="line"/>
      <point x="811" y="1016" type="line" smooth="yes"/>
      <point x="811" y="1215"/>
      <point x="639" y="1221" type="qcurve"/>
      <point x="258" y="1221" type="line"/>
      <point x="94" y="1202"/>
      <point x="94" y="1016" type="qcurve" smooth="yes"/>
      <point x="94" y="910" type="line"/>
      <point x="377" y="910" type="line"/>
      <point x="377" y="987" type="line"/>
      <point x="193" y="987" type="line"/>
      <point x="193" y="1030" type="line" smooth="yes"/>
      <point x="193" y="1123"/>
      <point x="283" y="1125" type="qcurve" smooth="yes"/>
      <point x="606" y="1125" type="line" smooth="yes"/>
      <point x="705" y="1125"/>
      <point x="705" y="1022" type="qcurve" smooth="yes"/>
    </contour>
  </outline>
</glyph>
<glyph name="uniA922" format="2">
	<advance width="922"/>
	<unicode hex="A922"/>
	<note>
		uniA922
  </note>
	<outline>
		<contour>
			<point x="172" y="410" type="qcurve"/>
			<point x="94" y="399"/>
			<point x="94" y="332" type="qcurve" smooth="yes"/>
			<point x="94" y="205" type="line" smooth="yes"/>
			<point x="94" y="110"/>
			<point x="193" y="0"/>
			<point x="266" y="0" type="qcurve" smooth="yes"/>
			<point x="652" y="0" type="line" smooth="yes"/>
			<point x="686" y="0"/>
			<point x="759" y="37"/>
			<point x="811" y="130"/>
			<point x="811" y="205" type="qcurve" smooth="yes"/>
			<point x="811" y="340" type="line"/>
			<point x="570" y="340" type="line"/>
			<point x="570" y="254" type="line"/>
			<point x="705" y="254" type="line"/>
			<point x="705" y="195" type="line" smooth="yes"/>
			<point x="705" y="92"/>
			<point x="623" y="92" type="qcurve" smooth="yes"/>
			<point x="295" y="94" type="line" smooth="yes"/>
			<point x="193" y="94"/>
			<point x="193" y="203" type="qcurve" smooth="yes"/>
			<point x="193" y="283" type="line"/>
			<point x="189" y="304"/>
			<point x="238" y="361"/>
			<point x="279" y="361" type="qcurve" smooth="yes"/>
			<point x="430" y="361" type="line"/>
			<point x="430" y="451" type="line"/>
			<point x="271" y="451" type="line" smooth="yes"/>
			<point x="238" y="451"/>
			<point x="193" y="484"/>
			<point x="193" y="512" type="qcurve" smooth="yes"/>
			<point x="193" y="604" type="line" smooth="yes"/>
			<point x="193" y="721"/>
			<point x="283" y="723" type="qcurve" smooth="yes"/>
			<point x="606" y="723" type="line" smooth="yes"/>
			<point x="705" y="723"/>
			<point x="705" y="621" type="qcurve" smooth="yes"/>
			<point x="705" y="557" type="line"/>
			<point x="574" y="555" type="line"/>
			<point x="574" y="475" type="line"/>
			<point x="811" y="475" type="line"/>
			<point x="811" y="615" type="line" smooth="yes"/>
			<point x="811" y="813"/>
			<point x="639" y="819" type="qcurve"/>
			<point x="258" y="819" type="line"/>
			<point x="94" y="800"/>
			<point x="94" y="615" type="qcurve" smooth="yes"/>
			<point x="94" y="496" type="line" smooth="yes"/>
			<point x="94" y="412"/>
		</contour>
	</outline>
</glyph>
<glyph name="uniA923" format="2">
	<advance width="922"/>
	<unicode hex="A923"/>
	<note>
		uniA923
  </note>
	<outline>
		<contour>
			<point x="705" y="312" type="line"/>
			<point x="705" y="195" type="line" smooth="yes"/>
			<point x="705" y="92"/>
			<point x="623" y="92" type="qcurve" smooth="yes"/>
			<point x="578" y="92" type="line"/>
			<point x="578" y="0" type="line"/>
			<point x="652" y="0" type="line" smooth="yes"/>
			<point x="686" y="0"/>
			<point x="759" y="37"/>
			<point x="811" y="130"/>
			<point x="811" y="205" type="qcurve" smooth="yes"/>
			<point x="811" y="819" type="line"/>
			<point x="598" y="819" type="line"/>
			<point x="598" y="723" type="line"/>
			<point x="705" y="723" type="line"/>
			<point x="705" y="455" type="line"/>
			<point x="342" y="92" type="line"/>
			<point x="295" y="94" type="line"/>
			<point x="193" y="94"/>
			<point x="193" y="203" type="qcurve" smooth="yes"/>
			<point x="193" y="723" type="line"/>
			<point x="303" y="723" type="line"/>
			<point x="303" y="819" type="line"/>
			<point x="94" y="819" type="line"/>
			<point x="94" y="205" type="line" smooth="yes"/>
			<point x="94" y="107"/>
			<point x="200" y="0"/>
			<point x="266" y="0" type="qcurve" smooth="yes"/>
			<point x="393" y="0" type="line"/>
		</contour>
	</outline>
</glyph>
<glyph name="uniA924" format="2">
	<advance width="922"/>
	<unicode hex="A924"/>
	<note>
		uniA924
  </note>
	<outline>
		<contour>
			<point x="328" y="570" type="line"/>
			<point x="193" y="570" type="line"/>
			<point x="193" y="604" type="line" smooth="yes"/>
			<point x="193" y="721"/>
			<point x="283" y="723" type="qcurve" smooth="yes"/>
			<point x="606" y="723" type="line" smooth="yes"/>
			<point x="705" y="723"/>
			<point x="705" y="621" type="qcurve" smooth="yes"/>
			<point x="705" y="594" type="line"/>
			<point x="94" y="250" type="line"/>
			<point x="94" y="205" type="line" smooth="yes"/>
			<point x="94" y="110"/>
			<point x="193" y="0"/>
			<point x="266" y="0" type="qcurve" smooth="yes"/>
			<point x="652" y="0" type="line" smooth="yes"/>
			<point x="686" y="0"/>
			<point x="759" y="37"/>
			<point x="811" y="130"/>
			<point x="811" y="205" type="qcurve" smooth="yes"/>
			<point x="811" y="615" type="line" smooth="yes"/>
			<point x="811" y="813"/>
			<point x="639" y="819" type="qcurve"/>
			<point x="258" y="819" type="line"/>
			<point x="94" y="800"/>
			<point x="94" y="615" type="qcurve" smooth="yes"/>
			<point x="94" y="488" type="line"/>
			<point x="328" y="488" type="line"/>
		</contour>
		<contour>
			<point x="705" y="492" type="line"/>
			<point x="705" y="195" type="line" smooth="yes"/>
			<point x="705" y="92"/>
			<point x="623" y="92" type="qcurve" smooth="yes"/>
			<point x="275" y="94" type="line" smooth="yes"/>
			<point x="235" y="94"/>
			<point x="193" y="141"/>
			<point x="193" y="174" type="qcurve" smooth="yes"/>
			<point x="193" y="201" type="line"/>
		</contour>
	</outline>
</glyph>
<glyph name="uniA925" format="2">
	<advance width="922"/>
	<unicode hex="A925"/>
	<note>
		uniA925
  </note>
	<outline>
		<contour>
			<point x="266" y="0" type="qcurve" smooth="yes"/>
			<point x="652" y="0" type="line" smooth="yes"/>
			<point x="686" y="0"/>
			<point x="759" y="37"/>
			<point x="811" y="130"/>
			<point x="811" y="205" type="qcurve" smooth="yes"/>
			<point x="811" y="615" type="line" smooth="yes"/>
			<point x="811" y="813"/>
			<point x="639" y="819" type="qcurve"/>
			<point x="258" y="819" type="line"/>
			<point x="94" y="800"/>
			<point x="94" y="615" type="qcurve" smooth="yes"/>
			<point x="94" y="205" type="line" smooth="yes"/>
			<point x="94" y="110"/>
			<point x="193" y="0"/>
		</contour>
		<contour>
			<point x="701" y="674" type="qcurve"/>
			<point x="603" y="574"/>
			<point x="463" y="574" type="qcurve"/>
			<point x="300" y="583"/>
			<point x="197" y="674" type="qcurve"/>
			<point x="201" y="723"/>
			<point x="283" y="723" type="qcurve" smooth="yes"/>
			<point x="606" y="723" type="line" smooth="yes"/>
			<point x="651" y="723"/>
			<point x="698" y="705"/>
		</contour>
		<contour>
			<point x="705" y="559" type="qcurve"/>
			<point x="705" y="195" type="line" smooth="yes"/>
			<point x="705" y="92"/>
			<point x="623" y="92" type="qcurve" smooth="yes"/>
			<point x="295" y="94" type="line" smooth="yes"/>
			<point x="193" y="94"/>
			<point x="193" y="203" type="qcurve" smooth="yes"/>
			<point x="193" y="563" type="line"/>
			<point x="253" y="510"/>
			<point x="376" y="480"/>
			<point x="459" y="475" type="qcurve"/>
			<point x="529" y="475"/>
			<point x="650" y="504"/>
		</contour>
	</outline>
</glyph>
<glyph name="uniA926" format="2">
	<advance width="0"/>
	<unicode hex="A926"/>
	<note>
		uniA926
  </note>
	<outline>
		<contour>
			<point x="-402" y="997" type="line"/>
			<point x="-402" y="1153" type="line"/>
			<point x="-557" y="1153" type="line"/>
			<point x="-557" y="997" type="line"/>
		</contour>
	</outline>
</glyph>
<glyph name="uniA927" format="2">
	<advance width="0"/>
	<unicode hex="A927"/>
	<note>
		uniA927
  </note>
	<outline>
		<contour>
			<point x="-303" y="1024" type="line"/>
			<point x="-594" y="1229" type="line"/>
			<point x="-778" y="1229" type="line"/>
			<point x="-287" y="897" type="line"/>
			<point x="-123" y="897" type="line"/>
		</contour>
	</outline>
</glyph>
<glyph name="uniA928" format="2">
	<advance width="0"/>
	<unicode hex="A928"/>
	<note>
		uniA928
  </note>
	<outline>
		<contour>
			<point x="-127" y="873" type="line"/>
			<point x="-469" y="1229" type="line"/>
			<point x="-807" y="873" type="line"/>
			<point x="-680" y="873" type="line"/>
			<point x="-469" y="1086" type="line"/>
			<point x="-254" y="873" type="line"/>
		</contour>
	</outline>
</glyph>
<glyph name="uniA929" format="2">
  <unicode hex="A929"/>
  <outline>
    <contour>
      <point x="-733" y="1116" type="curve" smooth="yes"/>
      <point x="-733" y="1229" type="line"/>
      <point x="-832" y="1229" type="line"/>
      <point x="-832" y="1118" type="line" smooth="yes"/>
      <point x="-832" y="991"/>
      <point x="-757" y="914"/>
      <point x="-660" y="914" type="curve" smooth="yes"/>
      <point x="-275" y="914" type="line"/>
      <point x="-191" y="909"/>
      <point x="-115" y="969"/>
      <point x="-115" y="1118" type="curve" smooth="yes"/>
      <point x="-115" y="1229" type="line"/>
      <point x="-221" y="1229" type="line"/>
      <point x="-221" y="1108" type="line" smooth="yes"/>
      <point x="-221" y="1040"/>
      <point x="-248" y="1006"/>
      <point x="-303" y="1006" type="curve" smooth="yes"/>
      <point x="-631" y="1008" type="line" smooth="yes"/>
      <point x="-699" y="1008"/>
      <point x="-733" y="1044"/>
    </contour>
  </outline>
</glyph>
<glyph name="uniA92A" format="2">
	<advance width="0"/>
	<unicode hex="A92A"/>
	<note>
		uniA92A
  </note>
	<outline>
		<contour>
			<point x="-729" y="1116" type="qcurve" smooth="yes"/>
			<point x="-729" y="1229" type="line"/>
			<point x="-828" y="1229" type="line"/>
			<point x="-828" y="1118" type="line" smooth="yes"/>
			<point x="-828" y="1023"/>
			<point x="-729" y="914"/>
			<point x="-656" y="914" type="qcurve" smooth="yes"/>
			<point x="-271" y="914" type="line"/>
			<point x="-208" y="910"/>
			<point x="-111" y="1007"/>
			<point x="-111" y="1118" type="qcurve" smooth="yes"/>
			<point x="-111" y="1229" type="line"/>
			<point x="-217" y="1229" type="line"/>
			<point x="-217" y="1108" type="line" smooth="yes"/>
			<point x="-217" y="1006"/>
			<point x="-299" y="1006" type="qcurve" smooth="yes"/>
			<point x="-627" y="1008" type="line" smooth="yes"/>
			<point x="-729" y="1008"/>
		</contour>
		<contour>
			<point x="-396" y="1073" type="line"/>
			<point x="-396" y="1229" type="line"/>
			<point x="-551" y="1229" type="line"/>
			<point x="-551" y="1073" type="line"/>
		</contour>
	</outline>
</glyph>
<glyph name="uniA92B" format="2">
	<advance width="0"/>
	<unicode hex="A92B"/>
	<note>
		uniA92B
  </note>
	<outline>
		<contour>
			<point x="-400" y="-322" type="line"/>
			<point x="-400" y="-166" type="line"/>
			<point x="-556" y="-166" type="line"/>
			<point x="-556" y="-322" type="line"/>
		</contour>
	</outline>
</glyph>
<glyph name="uniA92C" format="2">
  <unicode hex="A92C"/>
  <note>
		uniA92C
  </note>
  <outline>
    <contour>
      <point x="-611" y="2" type="line"/>
      <point x="-697" y="66" type="line"/>
      <point x="-759" y="52"/>
      <point x="-832" y="-44"/>
      <point x="-832" y="-111" type="qcurve" smooth="yes"/>
      <point x="-832" y="-205" type="line" smooth="yes"/>
      <point x="-832" y="-300"/>
      <point x="-733" y="-410"/>
      <point x="-660" y="-410" type="qcurve" smooth="yes"/>
      <point x="-275" y="-410" type="line" smooth="yes"/>
      <point x="-217" y="-410"/>
      <point x="-115" y="-316"/>
      <point x="-115" y="-205" type="qcurve" smooth="yes"/>
      <point x="-115" y="-135" type="line"/>
      <point x="-221" y="-135" type="line"/>
      <point x="-221" y="-215" type="line" smooth="yes"/>
      <point x="-221" y="-314"/>
      <point x="-303" y="-314" type="qcurve" smooth="yes"/>
      <point x="-631" y="-316" type="line" smooth="yes"/>
      <point x="-733" y="-316"/>
      <point x="-733" y="-207" type="qcurve" smooth="yes"/>
      <point x="-733" y="-142" type="line" smooth="yes"/>
      <point x="-733" y="-97"/>
      <point x="-718" y="-51"/>
      <point x="-692" y="-27" type="qcurve"/>
    </contour>
  </outline>
</glyph>
<glyph name="uniA92D" format="2">
	<advance width="0"/>
	<unicode hex="A92D"/>
	<note>
		uniA92D
  </note>
	<outline>
		<contour>
			<point x="-606" y="6" type="line"/>
			<point x="-713" y="66" type="line"/>
			<point x="-832" y="35"/>
			<point x="-832" y="-111" type="qcurve" smooth="yes"/>
			<point x="-832" y="-205" type="line" smooth="yes"/>
			<point x="-832" y="-300"/>
			<point x="-733" y="-410"/>
			<point x="-660" y="-410" type="qcurve" smooth="yes"/>
			<point x="-275" y="-410" type="line" smooth="yes"/>
			<point x="-217" y="-410"/>
			<point x="-115" y="-316"/>
			<point x="-115" y="-205" type="qcurve" smooth="yes"/>
			<point x="-115" y="-135" type="line"/>
			<point x="-221" y="-135" type="line"/>
			<point x="-221" y="-215" type="line" smooth="yes"/>
			<point x="-221" y="-314"/>
			<point x="-303" y="-314" type="qcurve" smooth="yes"/>
			<point x="-631" y="-316" type="line" smooth="yes"/>
			<point x="-733" y="-316"/>
			<point x="-733" y="-207" type="qcurve" smooth="yes"/>
			<point x="-733" y="-166" type="line" smooth="yes"/>
			<point x="-733" y="-109"/>
			<point x="-717" y="-52"/>
			<point x="-688" y="-31" type="qcurve"/>
		</contour>
		<contour>
			<point x="-400" y="-240" type="line"/>
			<point x="-400" y="-84" type="line"/>
			<point x="-555" y="-84" type="line"/>
			<point x="-555" y="-240" type="line"/>
		</contour>
	</outline>
</glyph>
<glyph name="uniA92E" format="2">
	<advance width="1106"/>
	<unicode hex="A92E"/>
	<note>
		uniA92E
  </note>
	<outline>
		<contour>
			<point x="1032" y="0" type="line"/>
			<point x="1005" y="61"/>
			<point x="843" y="167"/>
			<point x="630" y="230"/>
			<point x="541" y="230" type="qcurve" smooth="yes"/>
			<point x="469" y="230"/>
			<point x="274" y="163"/>
			<point x="115" y="56"/>
			<point x="94" y="0" type="qcurve"/>
			<point x="234" y="0" type="line"/>
			<point x="234" y="15"/>
			<point x="339" y="76"/>
			<point x="490" y="125"/>
			<point x="561" y="125" type="qcurve" smooth="yes"/>
			<point x="633" y="125"/>
			<point x="840" y="55"/>
			<point x="910" y="0" type="qcurve"/>
		</contour>
	</outline>
</glyph>
<glyph name="uniA92F" format="2">
  <advance width="287"/>
  <unicode hex="A92F"/>
  <note>
uniA92F
</note>
  <outline>
    <contour>
      <point x="193" y="0" type="line"/>
      <point x="193" y="817" type="line"/>
      <point x="94" y="819" type="line"/>
      <point x="94" y="0" type="line"/>
    </contour>
  </outline>
</glyph>
<glyph name=".notdef" format="2">
	<advance width="1536"/>
	<note>
		.notdef
  </note>
	<outline>
		<contour>
			<point x="256" y="0" type="line"/>
			<point x="1280" y="0" type="line"/>
			<point x="1280" y="1280" type="line"/>
			<point x="256" y="1280" type="line"/>
		</contour>
		<contour>
			<point x="1247" y="33" type="line"/>
			<point x="289" y="33" type="line"/>
			<point x="289" y="1247" type="line"/>
			<point x="1247" y="1247" type="line"/>
		</contour>
	</outline>
</glyph>
